<mxfile host="65bd71144e">
    <diagram id="v-q1EdR2UzP3FlL0p8zX" name="Page-1">
        <mxGraphModel dx="2386" dy="2014" grid="1" gridSize="10" guides="1" tooltips="1" connect="1" arrows="1" fold="1" page="1" pageScale="1" pageWidth="1169" pageHeight="1654" math="0" shadow="0">
            <root>
                <mxCell id="0"/>
                <mxCell id="1" parent="0"/>
                <mxCell id="60" value="" style="shape=cylinder3;whiteSpace=wrap;html=1;boundedLbl=1;backgroundOutline=1;size=15;rounded=0;glass=0;sketch=0;strokeWidth=1;gradientColor=none;" parent="1" vertex="1">
                    <mxGeometry x="1720" y="780" width="150" height="180" as="geometry"/>
                </mxCell>
                <mxCell id="2" value="WORKFLOW&lt;br&gt;Settings&lt;br&gt;Condicionantes" style="rounded=0;whiteSpace=wrap;html=1;glass=0;strokeWidth=3;" parent="1" vertex="1">
                    <mxGeometry x="10" y="280" width="120" height="60" as="geometry"/>
                </mxCell>
                <mxCell id="70" style="edgeStyle=none;html=1;shadow=0;" parent="1" source="5" target="69" edge="1">
                    <mxGeometry relative="1" as="geometry"/>
                </mxCell>
                <mxCell id="5" value="PARTNER / INVESTIGADORES" style="rounded=0;whiteSpace=wrap;html=1;" parent="1" vertex="1">
                    <mxGeometry x="10" y="20" width="120" height="60" as="geometry"/>
                </mxCell>
                <mxCell id="101" style="edgeStyle=none;html=1;shadow=0;" parent="1" source="7" target="42" edge="1">
                    <mxGeometry relative="1" as="geometry"/>
                </mxCell>
                <mxCell id="103" style="edgeStyle=none;html=1;entryX=0;entryY=0.5;entryDx=0;entryDy=0;" parent="1" source="7" target="8" edge="1">
                    <mxGeometry relative="1" as="geometry"/>
                </mxCell>
                <mxCell id="7" value="V1 S1&lt;br&gt;NEUROPSICOLOGO&lt;br&gt;Cognitivo&lt;br&gt;-Test Minimental" style="shape=process;whiteSpace=wrap;html=1;backgroundOutline=1;glass=0;strokeWidth=1;" parent="1" vertex="1">
                    <mxGeometry x="1010" y="180" width="160" height="140" as="geometry"/>
                </mxCell>
                <mxCell id="100" style="edgeStyle=none;html=1;entryX=0.5;entryY=0;entryDx=0;entryDy=0;shadow=0;" parent="1" source="8" target="51" edge="1">
                    <mxGeometry relative="1" as="geometry"/>
                </mxCell>
                <mxCell id="102" style="edgeStyle=none;html=1;entryX=0.5;entryY=0;entryDx=0;entryDy=0;shadow=0;" parent="1" source="8" target="42" edge="1">
                    <mxGeometry relative="1" as="geometry"/>
                </mxCell>
                <mxCell id="104" style="edgeStyle=none;html=1;entryX=0;entryY=0.5;entryDx=0;entryDy=0;" parent="1" source="8" target="90" edge="1">
                    <mxGeometry relative="1" as="geometry"/>
                </mxCell>
                <mxCell id="8" value="V1 S2&lt;br&gt;ENFERMERA&lt;br&gt;Extracción&lt;br&gt;-Sangre" style="shape=process;whiteSpace=wrap;html=1;backgroundOutline=1;glass=0;strokeWidth=1;" parent="1" vertex="1">
                    <mxGeometry x="1260" y="307.5" width="160" height="140" as="geometry"/>
                </mxCell>
                <mxCell id="13" value="&lt;h1&gt;Selección de Participantes&lt;/h1&gt;&lt;p&gt;Fase en la que se filtran los participantes de la cohorte potencialmente aptos para ser incluidos en el estudio&amp;nbsp;&lt;/p&gt;" style="text;html=1;strokeColor=none;fillColor=none;spacing=5;spacingTop=-20;whiteSpace=wrap;overflow=hidden;rounded=0;glass=0;" parent="1" vertex="1">
                    <mxGeometry x="240" y="20" width="190" height="140" as="geometry"/>
                </mxCell>
                <mxCell id="15" value="COHORTE&lt;br&gt;Participantes" style="shape=internalStorage;whiteSpace=wrap;html=1;backgroundOutline=1;glass=0;strokeWidth=1;" parent="1" vertex="1">
                    <mxGeometry x="240" y="320" width="120" height="210" as="geometry"/>
                </mxCell>
                <mxCell id="88" style="edgeStyle=none;html=1;shadow=0;" parent="1" source="17" target="7" edge="1">
                    <mxGeometry relative="1" as="geometry"/>
                </mxCell>
                <mxCell id="17" value="CHEQUEO&lt;br&gt;Aptitudes&lt;br&gt;de participantes" style="shape=step;perimeter=stepPerimeter;whiteSpace=wrap;html=1;fixedSize=1;glass=0;strokeWidth=1;" parent="1" vertex="1">
                    <mxGeometry x="790" y="197.5" width="120" height="80" as="geometry"/>
                </mxCell>
                <mxCell id="18" value="&lt;h1&gt;Screening&lt;/h1&gt;&lt;p&gt;Fase en la que se chequean las aptitudes de los participantes de la cohorte de manera física para ser incluidos en el estudio o no.&lt;/p&gt;" style="text;html=1;strokeColor=none;fillColor=none;spacing=5;spacingTop=-20;whiteSpace=wrap;overflow=hidden;rounded=0;glass=0;" parent="1" vertex="1">
                    <mxGeometry x="780" y="20" width="190" height="120" as="geometry"/>
                </mxCell>
                <mxCell id="20" value="" style="endArrow=classic;html=1;exitX=1;exitY=0.5;exitDx=0;exitDy=0;entryX=0.25;entryY=0;entryDx=0;entryDy=0;" parent="1" source="15" target="46" edge="1">
                    <mxGeometry relative="1" as="geometry">
                        <mxPoint x="450" y="160" as="sourcePoint"/>
                        <mxPoint x="550" y="160" as="targetPoint"/>
                        <Array as="points"/>
                    </mxGeometry>
                </mxCell>
                <mxCell id="21" value="FILTRADO" style="edgeLabel;resizable=0;html=1;align=center;verticalAlign=middle;glass=0;strokeWidth=1;" parent="20" connectable="0" vertex="1">
                    <mxGeometry relative="1" as="geometry"/>
                </mxCell>
                <mxCell id="22" value="" style="endArrow=classic;html=1;entryX=0;entryY=0.5;entryDx=0;entryDy=0;exitX=1;exitY=0.5;exitDx=0;exitDy=0;" parent="1" source="2" target="15" edge="1">
                    <mxGeometry relative="1" as="geometry">
                        <mxPoint x="190" y="130" as="sourcePoint"/>
                        <mxPoint x="330" y="140" as="targetPoint"/>
                    </mxGeometry>
                </mxCell>
                <mxCell id="23" value="REQUERIMIENTOS" style="edgeLabel;resizable=0;html=1;align=center;verticalAlign=middle;glass=0;strokeWidth=1;" parent="22" connectable="0" vertex="1">
                    <mxGeometry relative="1" as="geometry"/>
                </mxCell>
                <mxCell id="32" style="edgeStyle=none;html=1;entryX=0;entryY=0.5;entryDx=0;entryDy=0;exitX=0.7;exitY=0.1;exitDx=0;exitDy=0;exitPerimeter=0;" parent="1" source="25" target="27" edge="1">
                    <mxGeometry relative="1" as="geometry"/>
                </mxCell>
                <mxCell id="39" value="NO" style="edgeLabel;html=1;align=center;verticalAlign=middle;resizable=0;points=[];" parent="32" vertex="1" connectable="0">
                    <mxGeometry x="-0.374" relative="1" as="geometry">
                        <mxPoint as="offset"/>
                    </mxGeometry>
                </mxCell>
                <mxCell id="37" style="edgeStyle=none;html=1;exitX=0.7;exitY=0.9;exitDx=0;exitDy=0;exitPerimeter=0;entryX=0;entryY=0.5;entryDx=0;entryDy=0;" parent="1" source="25" target="28" edge="1">
                    <mxGeometry relative="1" as="geometry"/>
                </mxCell>
                <mxCell id="38" value="SI" style="edgeLabel;html=1;align=center;verticalAlign=middle;resizable=0;points=[];" parent="37" vertex="1" connectable="0">
                    <mxGeometry x="0.3004" y="-2" relative="1" as="geometry">
                        <mxPoint x="-19" y="-15" as="offset"/>
                    </mxGeometry>
                </mxCell>
                <mxCell id="25" value="" style="shape=xor;whiteSpace=wrap;html=1;glass=0;strokeWidth=1;" parent="1" vertex="1">
                    <mxGeometry x="2040" y="375" width="20" height="30" as="geometry"/>
                </mxCell>
                <mxCell id="27" value="SCREENING FAILURE" style="rounded=0;whiteSpace=wrap;html=1;glass=0;strokeWidth=1;" parent="1" vertex="1">
                    <mxGeometry x="2110" y="325" width="100" height="50" as="geometry"/>
                </mxCell>
                <mxCell id="96" style="edgeStyle=none;html=1;shadow=0;" parent="1" source="28" target="73" edge="1">
                    <mxGeometry relative="1" as="geometry"/>
                </mxCell>
                <mxCell id="28" value="SCREENING SUCCESS" style="rounded=0;whiteSpace=wrap;html=1;glass=0;strokeWidth=1;" parent="1" vertex="1">
                    <mxGeometry x="2110" y="410" width="100" height="50" as="geometry"/>
                </mxCell>
                <mxCell id="43" value="CRF" style="swimlane;startSize=0;glass=0;strokeWidth=1;swimlaneFillColor=none;gradientColor=none;rounded=0;arcSize=22;swimlaneLine=1;sketch=0;" parent="1" vertex="1">
                    <mxGeometry x="983" y="800" width="500" height="140" as="geometry">
                        <mxRectangle x="670" y="340" width="50" height="40" as="alternateBounds"/>
                    </mxGeometry>
                </mxCell>
                <mxCell id="42" value="HISTORIAL&lt;br&gt;CLINICO" style="shape=dataStorage;whiteSpace=wrap;html=1;fixedSize=1;glass=0;strokeWidth=1;" parent="43" vertex="1">
                    <mxGeometry x="12" y="40" width="220" height="60" as="geometry"/>
                </mxCell>
                <mxCell id="51" value="FORMULARIO&lt;br&gt;DE MUESTRAS" style="shape=document;whiteSpace=wrap;html=1;boundedLbl=1;rounded=0;glass=0;sketch=0;strokeWidth=1;gradientColor=none;" parent="43" vertex="1">
                    <mxGeometry x="260" y="40" width="217" height="60" as="geometry"/>
                </mxCell>
                <mxCell id="86" style="edgeStyle=none;html=1;entryX=0;entryY=0.5;entryDx=0;entryDy=0;shadow=0;" parent="1" target="35" edge="1">
                    <mxGeometry relative="1" as="geometry">
                        <mxPoint x="570" y="420" as="sourcePoint"/>
                    </mxGeometry>
                </mxCell>
                <mxCell id="46" value="CITACIONES" style="shape=internalStorage;whiteSpace=wrap;html=1;backgroundOutline=1;rounded=0;glass=0;sketch=0;strokeWidth=1;gradientColor=none;" parent="1" vertex="1">
                    <mxGeometry x="490" y="410" width="230" height="120" as="geometry"/>
                </mxCell>
                <mxCell id="49" value="&lt;h1&gt;Week 1&lt;/h1&gt;&lt;p&gt;Comienzo de la primera Visita anual, que puede implicar varias sesiones en diferentes días. Definiendolo como Vn Sn.&lt;br&gt;Cada sesión puede tener varios actos.&lt;/p&gt;" style="text;html=1;strokeColor=none;fillColor=none;spacing=5;spacingTop=-20;whiteSpace=wrap;overflow=hidden;rounded=0;glass=0;" parent="1" vertex="1">
                    <mxGeometry x="1010" y="20" width="190" height="140" as="geometry"/>
                </mxCell>
                <mxCell id="50" value="SAMPLE&lt;br&gt;UNIT" style="shape=dataStorage;whiteSpace=wrap;html=1;fixedSize=1;rounded=0;glass=0;sketch=0;strokeWidth=1;gradientColor=none;" parent="1" vertex="1">
                    <mxGeometry x="1745" y="840" width="100" height="60" as="geometry"/>
                </mxCell>
                <mxCell id="59" style="edgeStyle=none;html=1;entryX=1;entryY=0.75;entryDx=0;entryDy=0;" parent="1" source="57" target="46" edge="1">
                    <mxGeometry relative="1" as="geometry"/>
                </mxCell>
                <mxCell id="57" value="SEGUIMIENTO" style="whiteSpace=wrap;html=1;glass=0;strokeWidth=1;" parent="1" vertex="1">
                    <mxGeometry x="790" y="610" width="120" height="60" as="geometry"/>
                </mxCell>
                <mxCell id="58" value="" style="edgeStyle=none;html=1;shadow=0;" parent="1" source="42" target="57" edge="1">
                    <mxGeometry relative="1" as="geometry"/>
                </mxCell>
                <mxCell id="71" style="edgeStyle=none;html=1;entryX=0.5;entryY=0;entryDx=0;entryDy=0;shadow=0;" parent="1" source="69" target="2" edge="1">
                    <mxGeometry relative="1" as="geometry"/>
                </mxCell>
                <mxCell id="69" value="Nuevo&lt;br&gt;Estudio" style="shape=step;perimeter=stepPerimeter;whiteSpace=wrap;html=1;fixedSize=1;rounded=0;glass=0;sketch=0;strokeWidth=1;gradientColor=none;" parent="1" vertex="1">
                    <mxGeometry x="10" y="120" width="120" height="60" as="geometry"/>
                </mxCell>
                <mxCell id="76" value="" style="edgeStyle=none;html=1;shadow=0;" parent="1" source="73" target="75" edge="1">
                    <mxGeometry relative="1" as="geometry"/>
                </mxCell>
                <mxCell id="73" value="FINALIZACIÓN /&lt;br&gt;EXPLOTACIÓN DE DATOS" style="rounded=0;whiteSpace=wrap;html=1;glass=0;strokeWidth=1;" parent="1" vertex="1">
                    <mxGeometry x="2317" y="370" width="240" height="140" as="geometry"/>
                </mxCell>
                <mxCell id="75" value="PARTNERS /&lt;br&gt;INVESTIGADORES" style="rounded=0;whiteSpace=wrap;html=1;glass=0;strokeWidth=1;" parent="1" vertex="1">
                    <mxGeometry x="2617" y="390" width="150" height="100" as="geometry"/>
                </mxCell>
                <mxCell id="78" value="&lt;h1&gt;Finalización&lt;/h1&gt;&lt;p&gt;Finalización y explotación de datos con los que sacar conclusiones y realizar un informe para posteriormente sacar un paper o informar al PARTNER.&lt;/p&gt;" style="text;html=1;strokeColor=none;fillColor=none;spacing=5;spacingTop=-20;whiteSpace=wrap;overflow=hidden;rounded=0;glass=0;" parent="1" vertex="1">
                    <mxGeometry x="2307" y="20" width="190" height="140" as="geometry"/>
                </mxCell>
                <mxCell id="87" style="edgeStyle=none;html=1;shadow=0;" parent="1" source="35" target="17" edge="1">
                    <mxGeometry relative="1" as="geometry"/>
                </mxCell>
                <mxCell id="35" value="CONSENTIMIENTO&lt;br&gt;INFORMADO" style="shape=document;whiteSpace=wrap;html=1;boundedLbl=1;glass=0;strokeWidth=1;" parent="1" vertex="1">
                    <mxGeometry x="610" y="247.5" width="120" height="60" as="geometry"/>
                </mxCell>
                <mxCell id="94" style="edgeStyle=none;html=1;shadow=0;" parent="1" source="90" target="91" edge="1">
                    <mxGeometry relative="1" as="geometry"/>
                </mxCell>
                <mxCell id="99" style="edgeStyle=none;html=1;shadow=0;" parent="1" source="90" target="42" edge="1">
                    <mxGeometry relative="1" as="geometry"/>
                </mxCell>
                <mxCell id="90" value="V1 S3&lt;br&gt;MRI" style="shape=process;whiteSpace=wrap;html=1;backgroundOutline=1;glass=0;strokeWidth=1;" parent="1" vertex="1">
                    <mxGeometry x="1530" y="440" width="160" height="140" as="geometry"/>
                </mxCell>
                <mxCell id="95" style="edgeStyle=none;html=1;entryX=0.25;entryY=0.5;entryDx=0;entryDy=0;entryPerimeter=0;shadow=0;" parent="1" source="91" target="25" edge="1">
                    <mxGeometry relative="1" as="geometry"/>
                </mxCell>
                <mxCell id="91" value="EVALUACIÓN DE RESULTADOS" style="shape=step;perimeter=stepPerimeter;whiteSpace=wrap;html=1;fixedSize=1;glass=0;strokeWidth=1;" parent="1" vertex="1">
                    <mxGeometry x="1810" y="350" width="160" height="80" as="geometry"/>
                </mxCell>
                <mxCell id="105" style="edgeStyle=none;html=1;entryX=0;entryY=0.5;entryDx=0;entryDy=0;entryPerimeter=0;" parent="1" source="51" target="60" edge="1">
                    <mxGeometry relative="1" as="geometry"/>
                </mxCell>
                <mxCell id="106" value="&lt;ul style=&quot;font-size: 21px&quot;&gt;&lt;li style=&quot;font-size: 21px&quot;&gt;Documentation&lt;/li&gt;&lt;li style=&quot;font-size: 21px&quot;&gt;CRF&lt;/li&gt;&lt;li style=&quot;font-size: 21px&quot;&gt;Trials/Studies&lt;/li&gt;&lt;li style=&quot;font-size: 21px&quot;&gt;Citations&lt;/li&gt;&lt;li style=&quot;font-size: 21px&quot;&gt;Sample Unit&lt;/li&gt;&lt;li style=&quot;font-size: 21px&quot;&gt;Cohort&lt;/li&gt;&lt;li style=&quot;font-size: 21px&quot;&gt;Laboratory&lt;/li&gt;&lt;/ul&gt;" style="text;strokeColor=none;fillColor=none;html=1;whiteSpace=wrap;verticalAlign=top;overflow=hidden;fontSize=21;" parent="1" vertex="1">
                    <mxGeometry x="60" y="620" width="190" height="310" as="geometry"/>
                </mxCell>
            </root>
        </mxGraphModel>
    </diagram>
</mxfile>